<svg width="28" height="17" viewBox="0 0 28 17" fill="none" xmlns="http://www.w3.org/2000/svg">
<g clip-path="url(#clip0_6_275)">
<path d="M0.245056 0.849601H0.558277V9.1662H0.245056V0.849601ZM0.871497 0.849601H1.18472V9.1662H0.871497V0.849601ZM2.75222 0.849601H3.06544V9.1662H2.75222V0.849601ZM8.84903 0.849601H9.16225V9.1662H8.84903V0.849601ZM10.8873 0.849601H11.2005V9.1662H10.8873V0.849601ZM12.8638 0.849601H13.177V9.1662H12.8638V0.849601ZM13.3731 0.849601H13.6863V9.1662H13.3735L13.3731 0.849601ZM13.8832 0.849601H14.1964V9.1662H13.8832V0.849601ZM14.4565 0.849601H14.7697V9.1662H14.4566L14.4565 0.849601ZM15.0296 0.849601H15.3428V9.1662H15.0296V0.849601ZM16.623 0.849601H16.9363V9.1662H16.6226L16.623 0.849601ZM20.5739 0.849601H20.8871V9.1662H20.5739V0.849601ZM24.6949 0.849601H25.0081V9.1662H24.6948L24.6949 0.849601ZM25.8222 0.849601H26.1354V9.1662H25.8222V0.849601ZM26.6371 0.849601H26.9503V9.1662H26.6371V0.849601ZM27.1385 0.849601H27.4517V9.1662H27.1385V0.849601ZM4.8207 0.849601H5.13392V9.1662H4.8207V0.849601ZM1.68645 0.849601H2.25049V9.1662H1.68645V0.849601ZM5.40854 0.849601H5.97246V9.1662H5.40854V0.849601ZM8.02207 0.849601H8.58599V9.1662H8.02207V0.849601ZM9.36009 0.849601H9.92402V9.1662H9.36009V0.849601ZM11.4629 0.849601H12.0268V9.1662H11.4629V0.849601ZM17.4579 0.849601H18.3351V9.1662H17.4579V0.849601ZM18.6037 0.849601H19.2927V9.1662H18.603L18.6037 0.849601ZM19.8127 0.849601H20.3767V9.1662H19.8127V0.849601ZM21.4114 0.849601H22.3517V9.1662H21.4114V0.849601ZM23.2528 0.849601H24.1932V9.1662H23.2528V0.849601ZM3.37898 0.849601H4.50683V9.1662H3.37898V0.849601ZM6.3023 0.849601H7.17945V9.1662H6.3023V0.849601Z" fill="#B7B7BE"/>
<path d="M0.650818 16.551V11.7908H2.43707C2.73556 11.7793 3.0333 11.8284 3.31229 11.9352C3.52613 12.0266 3.70639 12.182 3.82828 12.3801C3.94909 12.5675 4.01392 12.7855 4.01518 13.0084C4.01519 13.2118 3.9578 13.411 3.84962 13.5831C3.72773 13.7727 3.55422 13.9236 3.3495 14.0179C3.61222 14.0855 3.84568 14.237 4.01433 14.4495C4.17038 14.657 4.25211 14.9109 4.24637 15.1704C4.24822 15.3859 4.19995 15.5988 4.10536 15.7924C4.02541 15.9659 3.90529 16.1179 3.75494 16.2359C3.59844 16.3482 3.42124 16.4284 3.23358 16.4718C2.98196 16.5295 2.72424 16.5563 2.46613 16.5516L0.650818 16.551ZM1.28134 13.7912H2.31075C2.51179 13.7991 2.71299 13.7805 2.90921 13.736C3.05282 13.6996 3.18015 13.6163 3.271 13.4992C3.35559 13.3776 3.3983 13.2317 3.39271 13.0836C3.39561 12.9366 3.35615 12.7919 3.27904 12.6667C3.20547 12.5479 3.0911 12.4599 2.95735 12.4193C2.72002 12.3647 2.47642 12.3423 2.23311 12.3527H1.28155L1.28134 13.7912ZM1.28134 15.9895H2.46634C2.60969 15.9932 2.7531 15.9857 2.89526 15.9669C3.02385 15.9461 3.14729 15.9009 3.259 15.8339C3.36107 15.7679 3.44389 15.6762 3.49908 15.5679C3.56352 15.445 3.59601 15.3078 3.59355 15.1689C3.59798 15.0033 3.55031 14.8404 3.45726 14.7033C3.3654 14.5718 3.23221 14.4747 3.07884 14.4274C2.85207 14.3661 2.61736 14.3392 2.38259 14.3477H1.28134V15.9895ZM5.16695 14.2331C5.127 13.5548 5.35553 12.888 5.80315 12.3768C6.01412 12.1552 6.26966 11.9809 6.55292 11.8654C6.83618 11.7498 7.14072 11.6956 7.44646 11.7063C7.86396 11.7007 8.275 11.8097 8.63479 12.0216C8.98451 12.2284 9.26521 12.534 9.44149 12.9C9.63149 13.2987 9.72641 13.736 9.71878 14.1776C9.72678 14.6265 9.6269 15.0708 9.42755 15.473C9.24653 15.8391 8.95755 16.1409 8.59962 16.3375C8.24577 16.5326 7.84784 16.6338 7.44378 16.6315C7.02098 16.6384 6.60478 16.5262 6.24279 16.3076C5.8945 16.0965 5.61552 15.7881 5.44017 15.4205C5.25936 15.0509 5.16588 14.6446 5.16695 14.2331V14.2331ZM5.81666 14.2431C5.78963 14.7384 5.95659 15.2248 6.28215 15.599C6.42901 15.7599 6.60867 15.8873 6.80899 15.9728C7.0093 16.0582 7.22562 16.0997 7.44335 16.0944C7.66237 16.1 7.88 16.0581 8.08132 15.9717C8.28264 15.8852 8.46288 15.7563 8.6097 15.5937C8.93818 15.1965 9.10257 14.6889 9.06929 14.1746C9.07799 13.8264 9.01199 13.4803 8.87574 13.1598C8.75565 12.8833 8.55554 12.6491 8.30119 12.4874C8.04701 12.3277 7.7521 12.2448 7.45192 12.2487C7.23921 12.2455 7.02797 12.2844 6.83039 12.3633C6.63282 12.4422 6.45283 12.5594 6.30081 12.7082C6.12095 12.9181 5.98535 13.1622 5.90215 13.4259C5.81896 13.6895 5.78988 13.9672 5.81666 14.2424V14.2431ZM10.7517 16.5514V11.7908H11.3815V15.989H13.7257V16.551L10.7517 16.5514ZM14.7351 16.5514V11.7908H18.1772V12.3527H15.3649V13.8111H17.9984V14.3696H15.3649V15.9896H18.2877V16.5516L14.7351 16.5514ZM20.6152 16.5514V12.3527H19.0461V11.7908H22.8194V12.3527H21.2446V16.551L20.6152 16.5514ZM23.4002 14.2331C23.3608 13.5547 23.5899 12.888 24.038 12.3771C24.249 12.1555 24.5045 11.9812 24.7878 11.8657C25.071 11.7501 25.3755 11.6959 25.6813 11.7067C26.0988 11.701 26.5098 11.81 26.8696 12.0219C27.2193 12.2286 27.5 12.5343 27.6763 12.9004C27.8664 13.299 27.9613 13.7363 27.9536 14.1779C27.9614 14.6269 27.8613 15.0711 27.6617 15.4734C27.4801 15.8401 27.1901 16.1421 26.8311 16.3385C26.4772 16.5336 26.0793 16.6348 25.6752 16.6324C25.2522 16.6394 24.8357 16.5269 24.4736 16.3079C24.126 16.0965 23.8477 15.7882 23.6729 15.4208C23.4923 15.051 23.399 14.6447 23.4002 14.2331V14.2331ZM24.05 14.2431C24.0229 14.7384 24.1899 15.2248 24.5154 15.599C24.6623 15.7599 24.842 15.8873 25.0423 15.9728C25.2426 16.0582 25.4589 16.0997 25.6766 16.0944C25.8963 16.1007 26.1147 16.0592 26.3167 15.9728C26.5188 15.8865 26.6997 15.7574 26.8471 15.5943C27.1755 15.1972 27.3399 14.6895 27.3065 14.1752C27.3134 13.8266 27.2453 13.4805 27.107 13.1604C26.9869 12.884 26.7868 12.6498 26.5324 12.4881C26.2784 12.3285 25.9837 12.2456 25.6837 12.2494C25.471 12.2461 25.2597 12.2851 25.0621 12.3639C24.8645 12.4428 24.6845 12.56 24.5325 12.7088C24.353 12.9188 24.2177 13.1628 24.1348 13.4263C24.0519 13.6898 24.023 13.9673 24.05 14.2422V14.2431Z" fill="#B7B7BE"/>
</g>
<defs>
<clipPath id="clip0_6_275">
<rect width="27.7088" height="15.7823" fill="white" transform="translate(0.245087 0.849609)"/>
</clipPath>
</defs>
</svg>
