<svg width="29" height="13" viewBox="0 0 29 13" fill="none" xmlns="http://www.w3.org/2000/svg">
<path fill-rule="evenodd" clip-rule="evenodd" d="M13.7693 9.92684V6.52129H15.5269C16.2472 6.52129 16.8551 6.27995 17.3507 5.80398L17.4696 5.68331C18.3749 4.69785 18.3154 3.16267 17.3507 2.25095C16.8683 1.76827 16.2075 1.50682 15.5269 1.52023H12.7054V9.92684H13.7693ZM13.7694 5.48943V2.55315H15.5538C15.9371 2.55315 16.3006 2.70064 16.5715 2.96879C17.1465 3.53191 17.1597 4.47045 16.6046 5.05368C16.3336 5.34195 15.9503 5.50284 15.5538 5.48943H13.7694ZM22.4321 4.62396C21.9761 4.20162 21.355 3.9871 20.5687 3.9871C19.5577 3.9871 18.7978 4.36251 18.2956 5.10664L19.2339 5.70328C19.5775 5.19379 20.0467 4.93904 20.6414 4.93904C21.018 4.93904 21.3814 5.07982 21.6656 5.33457C21.9431 5.57591 22.1017 5.92451 22.1017 6.29322V6.54126C21.692 6.31333 21.1766 6.19266 20.5423 6.19266C19.8022 6.19266 19.2075 6.36696 18.7648 6.72226C18.322 7.07757 18.0974 7.54683 18.0974 8.14348C18.0842 8.68649 18.3154 9.20268 18.7251 9.55128C19.1414 9.9267 19.67 10.1144 20.2912 10.1144C21.0246 10.1144 21.6061 9.78592 22.0488 9.12894H22.0951V9.9267H23.1127V6.38037C23.1127 5.63624 22.888 5.0463 22.4321 4.62396ZM19.5446 8.86749C19.3266 8.7066 19.1944 8.44515 19.1944 8.16359C19.1944 7.84851 19.3398 7.58706 19.624 7.37924C19.9147 7.17142 20.2782 7.06416 20.7078 7.06416C21.3026 7.05746 21.7652 7.19153 22.0957 7.45969C22.0957 7.91555 21.9172 8.31107 21.5669 8.64627C21.2497 8.96805 20.8202 9.14905 20.3707 9.14905C20.0734 9.15576 19.7826 9.0552 19.5446 8.86749ZM25.399 12.4543L28.954 4.17502H27.7976L26.1523 8.30458H26.1325L24.4475 4.17502H23.2911L25.6237 9.5582L24.3021 12.4543H25.399Z" fill="#B7B7BE"/>
<path d="M10.0964 5.78438C10.0964 5.45589 10.07 5.1274 10.0171 4.80562H5.53041V6.66258H8.10084C7.99511 7.25922 7.65151 7.79553 7.14932 8.13072V9.33741H8.68232C9.58098 8.49943 10.0964 7.25922 10.0964 5.78438Z" fill="#B7B7BE"/>
<path d="M5.53058 10.503C6.81249 10.503 7.89616 10.074 8.68249 9.33653L7.14948 8.12984C6.71998 8.42481 6.17153 8.5924 5.53058 8.5924C4.28831 8.5924 3.23767 7.74102 2.86103 6.60136H1.28177V7.84828C2.08792 9.47731 3.73326 10.503 5.53058 10.503Z" fill="#B7B7BE"/>
<path d="M2.86129 6.60236C2.66302 6.00572 2.66302 5.35545 2.86129 4.7521V3.51189H1.28177C0.601063 4.87277 0.601063 6.48169 1.28177 7.84257L2.86129 6.60236Z" fill="#B7B7BE"/>
<path d="M5.53069 2.76057C6.21129 2.74716 6.86546 3.00861 7.35444 3.48458L8.71564 2.10359C7.85002 1.28572 6.71348 0.836568 5.53069 0.849976C3.73337 0.849976 2.08803 1.88237 1.28188 3.5114L2.86114 4.75831C3.23779 3.61196 4.28843 2.76057 5.53069 2.76057Z" fill="#B7B7BE"/>
</svg>
