<svg width="26" height="17" viewBox="0 0 26 17" fill="none" xmlns="http://www.w3.org/2000/svg">
<path fill-rule="evenodd" clip-rule="evenodd" d="M13.2717 14.5543C11.9284 15.7134 10.186 16.4132 8.282 16.4132C4.03356 16.4132 0.589508 12.9292 0.589508 8.6314C0.589508 4.33364 4.03356 0.849609 8.282 0.849609C10.186 0.849609 11.9285 1.54939 13.2718 2.70859C14.615 1.54943 16.3574 0.849668 18.2614 0.849668C22.5099 0.849668 25.9539 4.3337 25.9539 8.63146C25.9539 12.9292 22.5099 16.4133 18.2614 16.4133C16.3574 16.4133 14.615 15.7135 13.2717 14.5543Z" fill="#B7B7BE"/>
<path fill-rule="evenodd" clip-rule="evenodd" d="M13.2717 14.5543C14.9257 13.127 15.9745 11.0031 15.9745 8.63146C15.9745 6.25981 14.9257 4.13596 13.2717 2.70864C14.615 1.54945 16.3574 0.849669 18.2615 0.849669C22.5099 0.849669 25.9539 4.3337 25.9539 8.63146C25.9539 12.9292 22.5099 16.4133 18.2615 16.4133C16.3574 16.4133 14.615 15.7135 13.2717 14.5543Z" fill="#6C6C79"/>
<path fill-rule="evenodd" clip-rule="evenodd" d="M13.2717 14.5544C14.9257 13.1271 15.9745 11.0032 15.9745 8.63157C15.9745 6.25993 14.9257 4.13608 13.2717 2.70876C11.6178 4.13608 10.569 6.25993 10.569 8.63157C10.569 11.0032 11.6178 13.1271 13.2717 14.5544Z" fill="#B7B7BE"/>
</svg>
