<svg width="23" height="21" viewBox="0 0 23 21" fill="none" xmlns="http://www.w3.org/2000/svg">
<path fill-rule="evenodd" clip-rule="evenodd" d="M3.11345 14.4767H1.3598C1.23979 14.4767 1.13773 14.5639 1.11901 14.6823L0.409745 19.1792C0.395648 19.268 0.464367 19.348 0.554374 19.348H1.39159C1.51159 19.348 1.61365 19.2608 1.63237 19.1421L1.82367 17.9292C1.84212 17.8105 1.94443 17.7234 2.06419 17.7234H2.61934C3.77453 17.7234 4.44119 17.1643 4.61539 16.0566C4.69383 15.572 4.61871 15.1912 4.39171 14.9244C4.14251 14.6317 3.70037 14.4767 3.11345 14.4767ZM3.31578 16.1191C3.2199 16.7484 2.73909 16.7484 2.2742 16.7484H2.00957L2.19522 15.5732C2.20624 15.5022 2.26778 15.4499 2.33958 15.4499H2.46087C2.77755 15.4499 3.07631 15.4499 3.23069 15.6303C3.32266 15.7381 3.3509 15.8981 3.31578 16.1191ZM8.35557 16.099H7.51578C7.44423 16.099 7.3824 16.1513 7.37137 16.2224L7.33423 16.4572L7.27549 16.3721C7.09369 16.1082 6.68834 16.02 6.28369 16.02C5.35562 16.02 4.56306 16.7229 4.40868 17.7089C4.32846 18.2006 4.4425 18.6709 4.72148 18.9989C4.97743 19.3004 5.34363 19.4261 5.77925 19.4261C6.52695 19.4261 6.94168 18.9452 6.94168 18.9452L6.90419 19.1787C6.89007 19.2679 6.95877 19.3479 7.04825 19.3479H7.80473C7.92506 19.3479 8.02652 19.2606 8.0455 19.142L8.49939 16.2677C8.51375 16.1793 8.44528 16.099 8.35557 16.099ZM7.18495 17.7334C7.1039 18.2132 6.72311 18.5353 6.23753 18.5353C5.99368 18.5353 5.79871 18.4571 5.67364 18.3088C5.54951 18.1617 5.50229 17.9521 5.5418 17.7188C5.61751 17.2431 6.00471 16.9106 6.48293 16.9106C6.72133 16.9106 6.91522 16.9898 7.04291 17.1393C7.17083 17.2903 7.22161 17.5011 7.18495 17.7334ZM11.9842 16.0988H12.8282C12.9463 16.0988 13.0153 16.2314 12.9481 16.3283L10.1414 20.3798C10.0959 20.4454 10.021 20.4844 9.94105 20.4844H9.09817C8.97951 20.4844 8.91021 20.3508 8.97892 20.2536L9.85288 19.02L8.92338 16.2921C8.89122 16.1973 8.96123 16.0988 9.0621 16.0988H9.89133C9.99907 16.0988 10.0941 16.1696 10.1252 16.2727L10.6185 17.9202L11.7825 16.2058C11.828 16.1388 11.9038 16.0988 11.9842 16.0988Z" fill="#B7B7BE"/>
<path fill-rule="evenodd" clip-rule="evenodd" d="M21.1339 19.1784L21.8536 14.5993C21.8647 14.5282 21.9263 14.4759 21.9978 14.4756H22.8081C22.8975 14.4756 22.9662 14.5559 22.9521 14.6446L22.2424 19.1413C22.2239 19.2599 22.1218 19.3472 22.0016 19.3472H21.278C21.1885 19.3472 21.1198 19.2672 21.1339 19.1784ZM15.6221 14.4759H13.8681C13.7484 14.4759 13.6463 14.5631 13.6276 14.6815L12.9183 19.1784C12.9042 19.2672 12.9729 19.3472 13.0625 19.3472H13.9625C14.0461 19.3472 14.1177 19.2862 14.1307 19.2031L14.332 17.9284C14.3505 17.8096 14.4528 17.7225 14.5725 17.7225H15.1274C16.2828 17.7225 16.9494 17.1635 17.1237 16.0558C17.2023 15.5711 17.1268 15.1903 16.8999 14.9236C16.6508 14.6308 16.209 14.4759 15.6221 14.4759ZM15.8244 16.1183C15.7288 16.7476 15.2479 16.7476 14.7828 16.7476H14.5184L14.7043 15.5723C14.7154 15.5014 14.7764 15.449 14.8484 15.449H14.9697C15.2862 15.449 15.5852 15.449 15.7395 15.6295C15.8315 15.7373 15.8595 15.8972 15.8244 16.1183ZM20.8637 16.0981H20.0245C19.9524 16.0981 19.8912 16.1505 19.8804 16.2215L19.8432 16.4564L19.7842 16.3713C19.6025 16.1074 19.1973 16.0192 18.7927 16.0192C17.8646 16.0192 17.0723 16.7221 16.9179 17.7081C16.8379 18.1998 16.9515 18.6701 17.2305 18.9981C17.4869 19.2996 17.8526 19.4252 18.2882 19.4252C19.036 19.4252 19.4506 18.9444 19.4506 18.9444L19.4132 19.1778C19.3991 19.2671 19.4678 19.347 19.5578 19.347H20.314C20.4337 19.347 20.5357 19.2598 20.5545 19.1412L21.0086 16.2669C21.0225 16.1785 20.9538 16.0981 20.8637 16.0981ZM19.6932 17.7326C19.6127 18.2124 19.2314 18.5344 18.7457 18.5344C18.5023 18.5344 18.307 18.4562 18.1818 18.308C18.0577 18.1609 18.011 17.9513 18.0501 17.718C18.1261 17.2423 18.5129 16.9098 18.9911 16.9098C19.2296 16.9098 19.4234 16.9889 19.5512 17.1385C19.6796 17.2895 19.7304 17.5003 19.6932 17.7326Z" fill="#B7B7BE"/>
<path d="M9.60327 12.8672L9.81889 11.4978L9.33865 11.4866H7.04546L8.63913 1.38163C8.64399 1.35112 8.66013 1.32268 8.68362 1.30248C8.70712 1.28229 8.73726 1.27115 8.76859 1.27115H12.6353C13.919 1.27115 14.8048 1.53828 15.2674 2.06552C15.4842 2.31286 15.6223 2.57132 15.6891 2.85576C15.7591 3.15423 15.7604 3.5108 15.6919 3.94571L15.687 3.97745V4.25611L15.9039 4.37896C16.0865 4.47583 16.2315 4.58672 16.3428 4.71369C16.5284 4.92516 16.6484 5.19394 16.699 5.51259C16.7514 5.84031 16.7341 6.23028 16.6484 6.67178C16.5494 7.17965 16.3895 7.62198 16.1735 7.98391C15.9747 8.31741 15.7216 8.59396 15.4212 8.80838C15.1342 9.01201 14.7933 9.16663 14.4079 9.2656C14.0343 9.36278 13.6086 9.41191 13.1415 9.41191H12.8406C12.6254 9.41191 12.4163 9.4894 12.2523 9.62835C12.0879 9.77016 11.9789 9.96382 11.9456 10.1758L11.9229 10.299L11.542 12.7126L11.5247 12.8012C11.5202 12.8293 11.5123 12.8433 11.5008 12.8528C11.4905 12.8614 11.4757 12.8672 11.4612 12.8672H9.60327Z" fill="#B7B7BE"/>
<path d="M16.1093 4.00996C16.0978 4.08375 16.0846 4.15918 16.0698 4.23668C15.5597 6.85476 13.8153 7.7592 11.5871 7.7592H10.4527C10.1802 7.7592 9.95059 7.95706 9.90811 8.22583L9.32725 11.9096L9.16278 12.9537C9.13513 13.1301 9.27124 13.2893 9.44924 13.2893H11.4614C11.6997 13.2893 11.902 13.1161 11.9395 12.8812L11.9593 12.7789L12.3382 10.3748L12.3626 10.2429C12.3996 10.0071 12.6024 9.83401 12.8407 9.83401H13.1416C15.091 9.83401 16.6172 9.04252 17.0632 6.75212C17.2495 5.79533 17.153 4.99643 16.66 4.43456C16.5108 4.26513 16.3257 4.12456 16.1093 4.00996Z" fill="#6C6C79"/>
<path d="M15.5756 3.79753C15.4978 3.77485 15.4174 3.75424 15.3349 3.73569C15.2521 3.71756 15.1671 3.70148 15.0798 3.68747C14.7738 3.638 14.4387 3.6145 14.0796 3.6145H11.049C10.9743 3.6145 10.9035 3.6314 10.84 3.66191C10.7002 3.72909 10.5964 3.86143 10.5712 4.02343L9.92639 8.10699L9.90788 8.22612C9.95036 7.95734 10.18 7.75947 10.4524 7.75947H11.5869C13.815 7.75947 15.5596 6.85463 16.0695 4.23697C16.0847 4.15947 16.0975 4.08403 16.109 4.01025C15.9801 3.94181 15.8403 3.88328 15.6898 3.83339C15.6528 3.82102 15.6145 3.80907 15.5756 3.79753Z" fill="#B7B7BE"/>
<path d="M10.5712 4.02348C10.5964 3.86147 10.7003 3.72915 10.84 3.66236C10.904 3.63185 10.9744 3.61495 11.049 3.61495H14.0798C14.4388 3.61495 14.774 3.63845 15.0797 3.68792C15.1672 3.70194 15.2522 3.71801 15.335 3.73615C15.4175 3.75471 15.4978 3.77532 15.5758 3.79798C15.6144 3.80953 15.6528 3.82148 15.6903 3.83344C15.8407 3.88331 15.9805 3.94227 16.1095 4.01028C16.2613 3.04278 16.1083 2.38404 15.5853 1.78753C15.0086 1.13086 13.9676 0.849718 12.6357 0.849718H8.76894C8.49685 0.849718 8.26486 1.04758 8.22273 1.31677L6.61222 11.5257C6.58042 11.7276 6.73622 11.9099 6.93985 11.9099H9.32714L9.92651 8.10703L10.5712 4.02348Z" fill="#B7B7BE"/>
</svg>
