<svg width="30" height="11" viewBox="0 0 30 11" fill="none" xmlns="http://www.w3.org/2000/svg">
<path d="M12.1991 10.3208V4.50369C12.1991 4.2492 12.2493 3.99721 12.3467 3.7621C12.4441 3.52699 12.5868 3.31338 12.7668 3.13345C12.9468 2.95353 13.1604 2.81082 13.3956 2.71349C13.6307 2.61615 13.8827 2.56609 14.1372 2.56617H15.8529C16.3654 2.56723 16.8566 2.77159 17.2187 3.1344C17.5807 3.49721 17.7841 3.98884 17.7841 4.5014V5.73952C17.7841 6.25353 17.5799 6.74649 17.2164 7.10996C16.853 7.47342 16.36 7.67761 15.846 7.67761H13.4195" stroke="#B7B7BE" stroke-width="0.897422" stroke-linecap="round" stroke-linejoin="round"/>
<path d="M18.2656 2.56511H19.009C19.22 2.56511 19.4223 2.64892 19.5715 2.7981C19.7207 2.94728 19.8045 3.14961 19.8045 3.36059V7.70686" stroke="#B7B7BE" stroke-width="0.897422" stroke-linecap="round" stroke-linejoin="round"/>
<path d="M19.6438 1.89173L19.3064 1.55375C19.2864 1.53383 19.2706 1.51017 19.2598 1.48411C19.249 1.45806 19.2434 1.43013 19.2434 1.40192C19.2434 1.37371 19.249 1.34578 19.2598 1.31973C19.2706 1.29367 19.2864 1.27001 19.3064 1.25009L19.6438 0.912679C19.6637 0.892708 19.6874 0.876861 19.7135 0.86605C19.7395 0.855238 19.7674 0.849674 19.7956 0.849674C19.8239 0.849674 19.8518 0.855238 19.8778 0.86605C19.9039 0.876861 19.9276 0.892708 19.9475 0.912679L20.2855 1.25009C20.3054 1.27001 20.3213 1.29367 20.3321 1.31973C20.3429 1.34578 20.3485 1.37371 20.3485 1.40192C20.3485 1.43013 20.3429 1.45806 20.3321 1.48411C20.3213 1.51017 20.3054 1.53383 20.2855 1.55375L19.9475 1.89173C19.9276 1.9117 19.9039 1.92755 19.8778 1.93836C19.8518 1.94917 19.8239 1.95474 19.7956 1.95474C19.7674 1.95474 19.7395 1.94917 19.7135 1.93836C19.6874 1.92755 19.6637 1.9117 19.6438 1.89173" fill="#B7B7BE"/>
<path d="M21.2354 2.56139H21.9742C22.3543 2.56146 22.7188 2.71244 22.9876 2.98115L24.7158 4.7088C24.7689 4.76214 24.8321 4.80447 24.9016 4.83335C24.9712 4.86223 25.0457 4.87709 25.121 4.87709C25.1963 4.87709 25.2708 4.86223 25.3404 4.83335C25.4099 4.80447 25.473 4.76214 25.5262 4.7088L27.2498 2.98744C27.3829 2.85434 27.5408 2.74876 27.7147 2.67674C27.8886 2.60471 28.075 2.56765 28.2632 2.56768H28.8636" stroke="#B7B7BE" stroke-width="0.897422" stroke-linecap="round" stroke-linejoin="round"/>
<path d="M21.2354 7.66834H21.9742C22.3543 7.66827 22.7188 7.51729 22.9876 7.24858L24.7158 5.52151C24.7689 5.46817 24.8321 5.42584 24.9016 5.39696C24.9712 5.36808 25.0457 5.35321 25.121 5.35321C25.1963 5.35321 25.2708 5.36808 25.3404 5.39696C25.4099 5.42584 25.473 5.46817 25.5262 5.52151L27.2498 7.24229C27.3829 7.37539 27.5408 7.48098 27.7147 7.553C27.8886 7.62502 28.075 7.66208 28.2632 7.66205H28.8636" stroke="#B7B7BE" stroke-width="0.897422" stroke-linecap="round" stroke-linejoin="round"/>
<path d="M7.79451 8.77144C7.61209 8.77199 7.43136 8.73634 7.26281 8.66654C7.09425 8.59675 6.94123 8.49419 6.8126 8.36483L5.39491 6.95058C5.34486 6.90252 5.27815 6.87569 5.20876 6.87569C5.13937 6.87569 5.07267 6.90252 5.02262 6.95058L3.59979 8.37284C3.47115 8.5022 3.31813 8.60475 3.14958 8.67455C2.98103 8.74434 2.80031 8.78 2.61788 8.77944H2.3388L4.13392 10.5751C4.4033 10.8443 4.76851 10.9955 5.14929 10.9955C5.53008 10.9955 5.89529 10.8443 6.16466 10.5751L7.96493 8.7743L7.79451 8.77144Z" fill="#B7B7BE"/>
<path d="M2.61789 3.75686C2.8003 3.75643 2.98099 3.79215 3.14952 3.86193C3.31806 3.93172 3.47109 4.03421 3.5998 4.16347L5.02263 5.5863C5.07205 5.63557 5.13899 5.66325 5.20878 5.66325C5.27857 5.66325 5.34551 5.63557 5.39493 5.5863L6.81261 4.16861C6.94132 4.03935 7.09436 3.93687 7.26289 3.86708C7.43142 3.79729 7.61212 3.76158 7.79453 3.76201H7.96609L6.16582 1.96174C6.03251 1.82833 5.87423 1.72251 5.70001 1.6503C5.52578 1.5781 5.33904 1.54094 5.15045 1.54094C4.96185 1.54094 4.77512 1.5781 4.60089 1.6503C4.42667 1.72251 4.26839 1.82833 4.13508 1.96174L2.33996 3.75686H2.61789Z" fill="#B7B7BE"/>
<path d="M9.45463 5.25098L8.36806 4.16441C8.34349 4.17424 8.31732 4.17948 8.29086 4.17986H7.79618C7.53867 4.18092 7.29201 4.2837 7.10993 4.46579L5.68996 5.88062C5.62685 5.94383 5.55187 5.99395 5.46934 6.0281C5.3868 6.06225 5.29833 6.07976 5.20901 6.07963C5.02854 6.07995 4.85534 6.00857 4.72749 5.88119L3.30466 4.45836C3.12258 4.27626 2.87592 4.17349 2.61841 4.17242H2.0105C1.9854 4.17196 1.96059 4.16692 1.9373 4.15755L0.845013 5.24984C0.711609 5.38314 0.605783 5.54143 0.53358 5.71565C0.461377 5.88987 0.42421 6.07662 0.42421 6.26521C0.42421 6.4538 0.461377 6.64054 0.53358 6.81476C0.605783 6.98899 0.711609 7.14727 0.845013 7.28058L1.9373 8.37286C1.96059 8.3635 1.9854 8.35846 2.0105 8.358H2.61841C2.87588 8.35674 3.12247 8.254 3.30466 8.07206L4.72749 6.64922C4.85716 6.5255 5.0295 6.45647 5.20872 6.45647C5.38795 6.45647 5.56029 6.5255 5.68996 6.64922L7.10765 8.06691C7.28984 8.24885 7.53643 8.3516 7.7939 8.35285H8.28857C8.3151 8.35313 8.34133 8.35857 8.36578 8.36886L9.45235 7.28229C9.72149 7.01292 9.87268 6.64771 9.87268 6.26692C9.87268 5.88614 9.72149 5.52093 9.45235 5.25155" fill="#B7B7BE"/>
<path d="M13.6762 9.82629C13.5862 9.83032 13.4968 9.84393 13.4097 9.86689V10.2215C13.4764 10.2449 13.5466 10.2567 13.6173 10.2563C13.7951 10.2563 13.8792 10.1963 13.8792 10.0396C13.8792 9.89263 13.81 9.82629 13.6762 9.82629V9.82629ZM13.3496 10.4845V9.78397H13.3988L13.404 9.81428C13.4947 9.79002 13.5876 9.77507 13.6813 9.76967C13.7463 9.76519 13.8107 9.78383 13.8632 9.82229C13.8919 9.85023 13.914 9.88425 13.9279 9.92186C13.9417 9.95946 13.947 9.9997 13.9432 10.0396C13.9466 10.0841 13.9378 10.1287 13.9176 10.1685C13.8975 10.2084 13.8668 10.2419 13.8289 10.2655C13.7647 10.2971 13.6939 10.3128 13.6224 10.3112C13.5501 10.3108 13.4782 10.2998 13.4091 10.2786V10.4845H13.3496Z" fill="#B7B7BE"/>
<path d="M14.3894 9.82487C14.2115 9.82487 14.1326 9.88206 14.1326 10.037C14.1326 10.192 14.211 10.2566 14.3894 10.2566C14.5678 10.2566 14.6456 10.1994 14.6456 10.045C14.6456 9.89064 14.5672 9.82487 14.3894 9.82487V9.82487ZM14.6181 10.2566C14.5497 10.299 14.4697 10.319 14.3894 10.3138C14.3091 10.3186 14.2292 10.2987 14.1606 10.2566C14.1286 10.2312 14.1035 10.1981 14.0875 10.1605C14.0715 10.1228 14.0652 10.0818 14.0691 10.041C14.0655 10.0003 14.0719 9.95921 14.0879 9.92151C14.1038 9.88381 14.1288 9.85062 14.1606 9.82487C14.2291 9.78256 14.3091 9.76257 14.3894 9.76768C14.4697 9.76269 14.5496 9.78266 14.6181 9.82487C14.6499 9.85038 14.675 9.88336 14.6909 9.92088C14.7069 9.9584 14.7133 9.99929 14.7096 10.0399C14.7136 10.0808 14.7072 10.122 14.6913 10.1598C14.6753 10.1977 14.6502 10.2309 14.6181 10.2566" fill="#B7B7BE"/>
<path d="M15.4594 10.2967L15.2615 9.87122H15.2575L15.0625 10.2967H15.0116L14.8 9.78201H14.8664L15.0419 10.2126H15.0459L15.2369 9.78201H15.2941L15.4903 10.2126H15.4943L15.6658 9.78201H15.7299L15.5189 10.2967H15.4594Z" fill="#B7B7BE"/>
<path d="M16.1079 9.82332C15.9432 9.82332 15.8877 9.89652 15.8791 10.0023H16.3401C16.3355 9.88508 16.2755 9.82332 16.1113 9.82332H16.1079ZM16.1113 10.3111C16.0356 10.3192 15.9596 10.2988 15.898 10.2539C15.8685 10.2269 15.8454 10.1935 15.8306 10.1562C15.8157 10.119 15.8094 10.0789 15.8122 10.0389C15.81 9.99741 15.8175 9.95596 15.8341 9.91784C15.8506 9.87972 15.8759 9.84599 15.9077 9.81931C15.9676 9.782 16.0375 9.76402 16.1079 9.76785C16.1798 9.7634 16.2513 9.78074 16.3132 9.8176C16.3875 9.86735 16.4018 9.95485 16.4018 10.0544H15.8751C15.8751 10.1596 15.9117 10.2534 16.1108 10.2534C16.1999 10.2512 16.2887 10.2413 16.3761 10.2236V10.2774C16.2872 10.296 16.1969 10.3067 16.1062 10.3094" fill="#B7B7BE"/>
<path d="M16.5734 10.2967V9.78199H16.6226L16.6277 9.8123C16.71 9.78528 16.7957 9.77026 16.8822 9.76769H16.8897V9.82488H16.8754C16.7932 9.82667 16.7117 9.84035 16.6335 9.86548V10.2955L16.5734 10.2967Z" fill="#B7B7BE"/>
<path d="M17.2379 9.82345C17.0732 9.82345 17.0172 9.89664 17.0092 10.0024H17.4707C17.4655 9.88521 17.4055 9.82345 17.2419 9.82345H17.2379ZM17.2419 10.3113C17.1662 10.3191 17.0902 10.2988 17.0286 10.2541C17.0003 10.2267 16.9784 10.1933 16.9646 10.1564C16.9507 10.1195 16.9453 10.08 16.9485 10.0408C16.9463 9.99925 16.9538 9.9578 16.9704 9.91968C16.9869 9.88156 17.0122 9.84783 17.044 9.82116C17.1039 9.78384 17.1738 9.76587 17.2442 9.76969C17.3159 9.76529 17.3873 9.78263 17.4489 9.81944C17.5233 9.8692 17.5376 9.95669 17.5376 10.0562H17.0115C17.0115 10.1614 17.0481 10.2552 17.2471 10.2552C17.3362 10.2531 17.425 10.2431 17.5124 10.2255V10.2792C17.4234 10.2978 17.3328 10.3085 17.2419 10.3113" fill="#B7B7BE"/>
<path d="M18.1878 9.85871C18.1213 9.83548 18.0513 9.82387 17.9808 9.82439C17.803 9.82439 17.7183 9.88444 17.7183 10.0406C17.7183 10.1967 17.7875 10.2539 17.9219 10.2539C18.0116 10.2496 18.1007 10.2364 18.1878 10.2144V9.85871ZM18.1993 10.2968L18.1941 10.2659C18.1034 10.2903 18.0105 10.3054 17.9168 10.3111C17.8517 10.316 17.787 10.2971 17.7349 10.2579C17.706 10.2301 17.6837 10.1961 17.6697 10.1584C17.6558 10.1208 17.6505 10.0805 17.6543 10.0406C17.6509 9.99621 17.6598 9.95179 17.6799 9.91215C17.7001 9.87251 17.7308 9.83918 17.7686 9.81581C17.8329 9.78342 17.9043 9.7675 17.9762 9.76949C18.0481 9.77033 18.1196 9.78131 18.1884 9.80209V9.56705H18.2484V10.2968H18.1993Z" fill="#B7B7BE"/>
<path d="M19.1291 9.82611C19.0391 9.83014 18.9498 9.84375 18.8626 9.86671V10.2201C18.9291 10.2444 18.9994 10.2566 19.0702 10.2562C19.2481 10.2562 19.3321 10.1961 19.3321 10.0394C19.3321 9.89245 19.2629 9.82611 19.1291 9.82611V9.82611ZM19.2824 10.2653C19.2183 10.2969 19.1474 10.3126 19.0759 10.3111C18.9981 10.3103 18.9209 10.2971 18.8472 10.2722V10.2968H18.806V9.56705H18.8632V9.8101C18.9522 9.78739 19.0432 9.77322 19.1348 9.76778C19.1998 9.76329 19.2642 9.78193 19.3167 9.82039C19.3454 9.84833 19.3675 9.88235 19.3814 9.91996C19.3953 9.95757 19.4005 9.9978 19.3968 10.0377C19.4002 10.0822 19.3913 10.1268 19.3711 10.1666C19.351 10.2065 19.3203 10.24 19.2824 10.2636" fill="#B7B7BE"/>
<path d="M19.4722 10.4962V10.439C19.5014 10.439 19.5294 10.4442 19.5483 10.4442C19.5831 10.447 19.6178 10.4381 19.6469 10.419C19.676 10.3998 19.6979 10.3714 19.709 10.3384L19.7284 10.2978L19.4602 9.78307H19.5294L19.7582 10.2257H19.7622L19.9806 9.78307H20.0487L19.7628 10.3589C19.7096 10.4636 19.653 10.4979 19.5483 10.4979C19.5229 10.4991 19.4975 10.4985 19.4722 10.4962Z" fill="#B7B7BE"/>
<path d="M20.8768 10.0039H20.6772V10.184H20.8774C21.0146 10.184 21.0666 10.1686 21.0666 10.0931C21.0666 10.0176 20.9952 10.0039 20.8768 10.0039V10.0039ZM20.8402 9.71223H20.6772V9.89523H20.8408C20.9763 9.89523 21.03 9.87921 21.03 9.80258C21.03 9.72595 20.962 9.71223 20.8402 9.71223V9.71223ZM21.149 10.2481C21.0758 10.2944 20.9872 10.2967 20.8259 10.2967H20.5222V9.60071H20.8184C20.958 9.60071 21.0432 9.60071 21.1141 9.64532C21.1378 9.65942 21.157 9.67985 21.1696 9.70431C21.1822 9.72877 21.1878 9.75627 21.1856 9.78371C21.1874 9.81805 21.1775 9.85198 21.1575 9.88C21.1376 9.90803 21.1088 9.9285 21.0758 9.93812V9.94212C21.165 9.96214 21.2228 10.0079 21.2228 10.1068C21.2249 10.1349 21.2192 10.163 21.2061 10.188C21.1931 10.213 21.1733 10.2338 21.149 10.2481" fill="#B7B7BE"/>
<path d="M21.8307 10.081C21.7735 10.0758 21.71 10.073 21.646 10.073C21.5413 10.073 21.5047 10.0941 21.5047 10.1422C21.5047 10.1902 21.535 10.2108 21.6151 10.2108C21.6878 10.2082 21.7601 10.1981 21.8307 10.1805V10.081ZM21.861 10.2966L21.857 10.2657C21.7662 10.2915 21.6728 10.3066 21.5785 10.3109C21.5242 10.3145 21.4701 10.3013 21.4235 10.2731C21.4045 10.2587 21.3893 10.2399 21.3793 10.2182C21.3694 10.1966 21.3649 10.1728 21.3663 10.149C21.365 10.1198 21.3726 10.091 21.388 10.0662C21.4034 10.0413 21.4259 10.0218 21.4527 10.01C21.5142 9.98703 21.5799 9.97728 21.6454 9.98145C21.6992 9.98145 21.7712 9.98431 21.8313 9.98832V9.98145C21.8313 9.90139 21.7786 9.87508 21.634 9.87508C21.5768 9.87508 21.5104 9.87794 21.4452 9.88423V9.78015C21.5173 9.77443 21.5985 9.77043 21.6654 9.77043C21.748 9.76316 21.8309 9.77963 21.9045 9.8179C21.9616 9.85964 21.9742 9.9174 21.9742 9.99403V10.2977L21.861 10.2966Z" fill="#B7B7BE"/>
<path d="M22.6439 10.2968V10.0109C22.6439 9.91767 22.5959 9.88393 22.5107 9.88393C22.4399 9.88696 22.3697 9.8979 22.3013 9.91652V10.2945H22.1601V9.77984H22.2745L22.2796 9.81187C22.3688 9.78596 22.4608 9.77042 22.5535 9.76555C22.6168 9.76064 22.6795 9.77939 22.7297 9.81816C22.7505 9.83906 22.7664 9.86431 22.7763 9.89209C22.7862 9.91988 22.7898 9.94951 22.7869 9.97886V10.2928L22.6439 10.2968Z" fill="#B7B7BE"/>
<path d="M23.1893 10.3104C23.1212 10.3157 23.0535 10.2964 22.9983 10.2561C22.9691 10.2285 22.9466 10.1945 22.9325 10.1569C22.9185 10.1192 22.9132 10.0788 22.9171 10.0388C22.9144 9.99638 22.9226 9.95398 22.9409 9.91564C22.9592 9.8773 22.9871 9.84429 23.0218 9.81976C23.0903 9.7813 23.1686 9.76362 23.2471 9.76886C23.3043 9.76886 23.3643 9.77286 23.4278 9.77858V9.88838C23.3763 9.88381 23.3134 9.87923 23.2642 9.87923C23.1281 9.87923 23.0641 9.92212 23.0641 10.0399C23.0641 10.1577 23.1121 10.1983 23.2236 10.1983C23.2962 10.1961 23.3683 10.1873 23.4392 10.172V10.2778C23.3572 10.2967 23.2735 10.3076 23.1893 10.3104Z" fill="#B7B7BE"/>
<path d="M23.8637 9.87684C23.7276 9.87684 23.6675 9.91973 23.6675 10.0364C23.6675 10.1531 23.7247 10.2028 23.8637 10.2028C24.0027 10.2028 24.0576 10.1611 24.0576 10.0444C24.0576 9.92774 24.0004 9.87684 23.8637 9.87684V9.87684ZM24.1096 10.2566C24.0349 10.2988 23.9493 10.3178 23.8637 10.3109C23.7778 10.3175 23.6918 10.2986 23.6166 10.2566C23.5831 10.232 23.5566 10.1992 23.5397 10.1613C23.5227 10.1234 23.5159 10.0817 23.52 10.0404C23.516 9.99892 23.5228 9.95709 23.5397 9.91901C23.5566 9.88093 23.5831 9.84788 23.6166 9.82309C23.6919 9.78121 23.7778 9.76251 23.8637 9.76933C23.9492 9.76277 24.0347 9.78147 24.1096 9.82309C24.1429 9.84779 24.1691 9.88069 24.1859 9.91858C24.2026 9.95647 24.2092 9.99804 24.2051 10.0393C24.2092 10.0806 24.2025 10.1223 24.1858 10.1604C24.169 10.1985 24.1428 10.2316 24.1096 10.2566" fill="#B7B7BE"/>
<path d="M25.0321 10.3116C24.9429 10.3172 24.8545 10.2915 24.7822 10.239C24.6987 10.1703 24.6736 10.0634 24.6736 9.94845C24.6706 9.8913 24.6819 9.83431 24.7066 9.78267C24.7313 9.73103 24.7685 9.68638 24.8148 9.65279C24.9047 9.60311 25.0069 9.58028 25.1093 9.58702C25.1865 9.58702 25.2655 9.59217 25.3518 9.59903V9.72427C25.278 9.71798 25.1865 9.71284 25.1156 9.71284C24.9172 9.71284 24.8331 9.78833 24.8331 9.94845C24.8331 10.1086 24.9109 10.1852 25.0573 10.1852C25.1618 10.1818 25.2656 10.1678 25.3672 10.1435V10.2681C25.2573 10.2939 25.145 10.3086 25.0321 10.3122" fill="#B7B7BE"/>
<path d="M25.788 9.86044C25.669 9.86044 25.6233 9.90276 25.6164 9.98111H25.9595C25.9555 9.89761 25.9069 9.86044 25.788 9.86044ZM25.7668 10.3105C25.6899 10.3175 25.613 10.2972 25.5495 10.2533C25.5204 10.2261 25.4979 10.1927 25.4837 10.1556C25.4694 10.1184 25.4638 10.0785 25.4671 10.0389C25.4649 9.9978 25.4724 9.95679 25.4891 9.9192C25.5058 9.88162 25.5312 9.84854 25.5632 9.8227C25.6308 9.78207 25.7093 9.7633 25.788 9.76894C25.8655 9.76413 25.9428 9.78202 26.0104 9.82041C26.0928 9.8776 26.0996 9.96795 26.1008 10.0737H25.613C25.6164 10.1521 25.6581 10.2024 25.8023 10.2024C25.8939 10.2004 25.9853 10.1916 26.0756 10.1761V10.2768C25.9737 10.2961 25.8705 10.3074 25.7668 10.3105Z" fill="#B7B7BE"/>
<path d="M26.7379 10.2968V10.0109C26.7379 9.91767 26.6905 9.88393 26.6053 9.88393C26.5345 9.88696 26.4643 9.8979 26.396 9.91652V10.2945H26.2524V9.77984H26.3697L26.3748 9.81187C26.464 9.78592 26.5559 9.77037 26.6487 9.76555C26.7119 9.76064 26.7747 9.77939 26.8249 9.81816C26.8457 9.83906 26.8616 9.86431 26.8715 9.89209C26.8814 9.91988 26.885 9.94951 26.8821 9.97886V10.2928L26.7379 10.2968Z" fill="#B7B7BE"/>
<path d="M27.288 10.3106C27.2563 10.3136 27.2243 10.3085 27.1952 10.2957C27.166 10.2829 27.1407 10.2628 27.1215 10.2374C27.0931 10.1907 27.08 10.1363 27.0838 10.0818V9.88966H26.9803V9.7833H27.0838L27.0992 9.62774H27.2262V9.7833H27.4281V9.88966H27.2262V10.0544C27.2242 10.0876 27.229 10.1209 27.2405 10.1522C27.2492 10.1688 27.2628 10.1822 27.2795 10.1907C27.2962 10.1993 27.3152 10.2024 27.3337 10.1996C27.3681 10.199 27.4023 10.1956 27.4361 10.1893V10.2923C27.3874 10.303 27.3378 10.3091 27.288 10.3106" fill="#B7B7BE"/>
<path d="M27.5683 10.2967V9.78199H27.6827L27.6878 9.81402C27.7698 9.78637 27.8553 9.77077 27.9418 9.76769H27.9601V9.89007C27.9435 9.89007 27.9246 9.89007 27.9103 9.89007C27.8424 9.89032 27.7747 9.89915 27.709 9.91638V10.2955L27.5683 10.2967Z" fill="#B7B7BE"/>
<path d="M28.4833 10.081C28.4233 10.0758 28.3621 10.073 28.298 10.073C28.1934 10.073 28.1568 10.0941 28.1568 10.1422C28.1568 10.1902 28.1877 10.2108 28.2677 10.2108C28.3405 10.2082 28.4127 10.198 28.4833 10.1805V10.081ZM28.5136 10.2966L28.5079 10.2674C28.4171 10.2931 28.3237 10.3083 28.2294 10.3126C28.1749 10.3161 28.1207 10.303 28.0739 10.2748C28.0549 10.2604 28.0398 10.2415 28.0298 10.2199C28.0199 10.1983 28.0153 10.1745 28.0167 10.1507C28.0153 10.1207 28.0233 10.091 28.0396 10.0658C28.0559 10.0406 28.0797 10.0211 28.1076 10.0101C28.1688 9.98753 28.2341 9.97818 28.2992 9.9826C28.3529 9.9826 28.4256 9.98546 28.4856 9.98947V9.98146C28.4856 9.9014 28.4324 9.87509 28.2883 9.87509C28.2311 9.87509 28.1642 9.87795 28.099 9.88424V9.78016C28.1717 9.77444 28.2529 9.77044 28.3198 9.77044C28.4022 9.76315 28.4849 9.77962 28.5582 9.8179C28.6154 9.85965 28.6286 9.91741 28.6286 9.99404V10.2977L28.5136 10.2966Z" fill="#B7B7BE"/>
<path d="M28.8104 9.56705H28.954V10.2968H28.8104V9.56705Z" fill="#B7B7BE"/>
</svg>
