<svg width="28" height="10" viewBox="0 0 28 10" fill="none" xmlns="http://www.w3.org/2000/svg">
<path fill-rule="evenodd" clip-rule="evenodd" d="M7.23996 9.59532H4.8497L3.0573 2.75721C2.97222 2.44266 2.79159 2.16458 2.52587 2.03351C1.86275 1.70414 1.13204 1.44202 0.3349 1.30981V1.04654H4.18542C4.71684 1.04654 5.11541 1.44202 5.18184 1.90131L6.11184 6.83387L8.50093 1.04654H10.8248L7.23996 9.59532ZM12.1533 9.59532H9.89594L11.7548 1.04654H14.0122L12.1533 9.59532ZM16.9327 3.41504C16.9991 2.95461 17.3977 2.69134 17.8627 2.69134C18.5934 2.62524 19.3894 2.75744 20.0537 3.08567L20.4522 1.24508C19.7879 0.981813 19.0572 0.849609 18.3941 0.849609C16.2031 0.849609 14.6089 2.03374 14.6089 3.67717C14.6089 4.9274 15.7381 5.58386 16.5353 5.97933C17.3977 6.37366 17.7298 6.63693 17.6634 7.03126C17.6634 7.62276 16.9991 7.88603 16.336 7.88603C15.5389 7.88603 14.7417 7.68886 14.0122 7.35949L13.6136 9.20123C14.4107 9.52945 15.2731 9.66166 16.0703 9.66166C18.527 9.72662 20.0537 8.54363 20.0537 6.768C20.0537 4.53193 16.9327 4.40087 16.9327 3.41504V3.41504ZM27.9539 9.59532L26.1615 1.04654H24.2363C23.8377 1.04654 23.4391 1.30981 23.3063 1.70414L19.9872 9.59532H22.311L22.7749 8.34623H25.6301L25.8958 9.59532H27.9539ZM24.5684 3.34934L25.2315 6.57123H23.3727L24.5684 3.34934Z" fill="#B7B7BE"/>
</svg>
